<svg width="64" height="64" viewBox="0 0 64 64" xmlns="http://www.w3.org/2000/svg">
    <!-- Background Circle -->
    <circle cx="32" cy="32" r="32" fill="#F5F7F8" />
    
    <!-- 3D Newspaper -->
    <!-- Base of the newspaper -->
    <rect x="12" y="16" width="36" height="28" rx="2" ry="2" fill="#495E57" />
    
    <!-- Folded corner -->
    <polygon points="48,16 44,20 48,20" fill="#45474B" />

    <!-- Header -->
    <rect x="14" y="18" width="32" height="6" fill="#F4CE14" />
    
    <!-- Text lines -->
    <rect x="14" y="26" width="28" height="2" fill="#F5F7F8" />
    <rect x="14" y="30" width="26" height="2" fill="#F5F7F8" />
    <rect x="14" y="34" width="28" height="2" fill="#F5F7F8" />
    <rect x="14" y="38" width="24" height="2" fill="#F5F7F8" />
    
    <!-- Side of the newspaper -->
    <polygon points="48,16 48,44 44,48 44,20" fill="#495E57" />
    <polygon points="48,20 44,20 44,48 48,44" fill="#45474B" />
    
    <!-- Text lines on side -->
    <rect x="44" y="22" width="2" height="18" fill="#F5F7F8" transform="rotate(-90 44 22)" />
    <rect x="44" y="26" width="2" height="16" fill="#F5F7F8" transform="rotate(-90 44 26)" />
    <rect x="44" y="30" width="2" height="20" fill="#F5F7F8" transform="rotate(-90 44 30)" />
    <rect x="44" y="34" width="2" height="14" fill="#F5F7F8" transform="rotate(-90 44 34)" />
</svg>
